<?xml version="1.0" encoding="UTF-8" standalone="no"?>
<!-- Created with Inkscape (http://www.inkscape.org/) -->

<svg
   width="80.019936mm"
   height="80.019936mm"
   viewBox="0 0 80.019936 80.019936"
   version="1.1"
   id="svg1"
   xml:space="preserve"
   inkscape:version="1.4.4 (dcaf3e7, 2026-05-05)"
   sodipodi:docname="vat.svg"
   xmlns:inkscape="http://www.inkscape.org/namespaces/inkscape"
   xmlns:sodipodi="http://sodipodi.sourceforge.net/DTD/sodipodi-0.dtd"
   xmlns:xlink="http://www.w3.org/1999/xlink"
   xmlns="http://www.w3.org/2000/svg"
   xmlns:svg="http://www.w3.org/2000/svg"><sodipodi:namedview
     id="namedview1"
     pagecolor="#ffffff"
     bordercolor="#000000"
     borderopacity="0.25"
     inkscape:showpageshadow="2"
     inkscape:pageopacity="0.0"
     inkscape:pagecheckerboard="0"
     inkscape:deskcolor="#d1d1d1"
     inkscape:document-units="mm"
     inkscape:zoom="2"
     inkscape:cx="70.75"
     inkscape:cy="124.5"
     inkscape:window-width="1920"
     inkscape:window-height="1009"
     inkscape:window-x="-8"
     inkscape:window-y="-8"
     inkscape:window-maximized="1"
     inkscape:current-layer="layer2" /><defs
     id="defs1"><linearGradient
       id="linearGradient24"
       inkscape:collect="always"><stop
         style="stop-color:#ffffff;stop-opacity:1;"
         offset="0"
         id="stop24" /><stop
         style="stop-color:#ffffff;stop-opacity:0.49860725;"
         offset="1"
         id="stop25" /></linearGradient><inkscape:path-effect
       effect="powerclip"
       message=""
       id="path-effect9"
       is_visible="true"
       lpeversion="1"
       inverse="true"
       flatten="false"
       hide_clip="false" /><inkscape:path-effect
       effect="powerclip"
       message=""
       id="path-effect8"
       is_visible="true"
       lpeversion="1"
       inverse="true"
       flatten="false"
       hide_clip="false" /><clipPath
       clipPathUnits="userSpaceOnUse"
       id="clipPath8"><ellipse
         style="fill:#00ffff;stroke-width:1.97512"
         id="ellipse8"
         cx="107.01132"
         cy="120.14482"
         rx="16.002384"
         ry="15.139465"
         display="none" /></clipPath><linearGradient
       inkscape:collect="always"
       xlink:href="#linearGradient24"
       id="linearGradient25"
       x1="109.1424"
       y1="134.90569"
       x2="119.24903"
       y2="111.09595"
       gradientUnits="userSpaceOnUse" /><linearGradient
       inkscape:collect="always"
       xlink:href="#linearGradient24"
       id="linearGradient26"
       gradientUnits="userSpaceOnUse"
       x1="109.1424"
       y1="134.90569"
       x2="119.24903"
       y2="111.09595" /></defs><g
     inkscape:groupmode="layer"
     id="layer2"
     inkscape:label="Capa 2"
     transform="translate(-68.629003,-83.710242)"><rect
       style="fill:#dbd951;fill-opacity:1;stroke:none;stroke-width:0.586963;stroke-dasharray:none;stroke-opacity:1"
       id="rect18"
       width="56.582649"
       height="56.582645"
       x="136.01654"
       y="-17.706324"
       transform="rotate(45.027565)" /><g
       id="g13"
       style="fill:url(#linearGradient25)"
       transform="matrix(1.1952917,0,0,1.1566519,-23.985276,-18.239323)"><path
         id="path13"
         style="fill:url(#linearGradient26);fill-opacity:1;stroke:none;stroke-width:0.301;stroke-opacity:1"
         d="m 104.69151,135.12425 c -0.16837,-0.0253 -0.33801,-0.0428 -0.5085,-0.0429 -1.61275,-3e-5 -2.92017,1.24724 -2.92023,2.78587 10e-4,1.00879 0.58543,1.8739 1.50876,2.36552 0.59116,0.29443 0.92617,0.41512 1.64549,0.57792 3.44964,0.20666 4.33886,-5.07639 0.27448,-5.68641 z m 4.40932,-30.63502 c -1.8128,7e-5 -3.61522,0.2809 -5.34644,0.83302 1.07142,-0.21068 2.16285,-0.31682 3.25717,-0.31677 8.83763,1.4e-4 16.00192,6.77806 16.00212,15.13912 1.1e-4,8.36127 -7.16427,15.13951 -16.00212,15.13965 -0.77319,-10e-6 -1.54462,-0.0586 -2.31046,-0.15865 4.58607,1.25601 1.6367,6.02162 -1.09089,5.46799 1.77289,0.59613 3.62514,0.90609 5.49062,0.9188 9.95652,1.1e-4 18.02792,-8.28784 18.02784,-18.51153 8e-5,-10.22369 -8.07132,-18.51164 -18.02784,-18.51153 z"
         sodipodi:nodetypes="sccccsccccscccccc" /></g><path
       d="m 99.689656,118.46552 -4.865176,14.1228 h -3.604564 l -4.806085,-14.1228 h 3.42729 l 2.944712,9.82884 q 0.236365,0.79773 0.285608,1.40834 h 0.05909 q 0.06894,-0.65985 0.305305,-1.44774 l 2.925015,-9.78944 z m 14.719544,14.1228 h -3.46668 l -1.00455,-3.14168 h -5.02276 l -0.9947,3.14168 h -3.44698 l 5.14093,-14.1228 h 3.77199 z m -5.20002,-5.58412 -1.51668,-4.747 q -0.16742,-0.53182 -0.23636,-1.27046 h -0.0788 q -0.0492,0.62046 -0.24621,1.23107 l -1.53638,4.78639 z m 17.12258,-5.94852 h -4.02805 v 11.53264 h -3.19092 v -11.53264 h -4.00836 v -2.59016 h 11.22733 z"
       id="text21"
       style="font-weight:bold;font-size:20.1698px;font-family:'Leelawadee UI';-inkscape-font-specification:'Leelawadee UI Bold';letter-spacing:1.65054px;fill:#ffffff;stroke:#dcd951;stroke-width:3.71202;stroke-linecap:square;stroke-miterlimit:2.3;paint-order:stroke fill markers"
       transform="scale(1.0222147,0.97826806)"
       aria-label="VAT" /></g></svg>
